<svg width="301" height="58" viewBox="0 0 301 58" fill="none" xmlns="http://www.w3.org/2000/svg">
<path d="M271.966 34.459C271.704 34.459 271.311 34.4028 270.786 34.2905C270.299 34.1781 270.056 33.9347 270.056 33.5602C270.056 33.0733 270.243 32.3804 270.618 31.4816C271.03 30.5828 271.46 29.6839 271.91 28.7851C272.397 27.8863 272.771 27.1934 273.033 26.7066C273.67 25.5456 274.494 24.1224 275.505 22.4371C276.516 20.7143 277.677 18.8792 278.988 16.9317C280.336 14.9468 281.76 12.9993 283.258 11.0893C284.756 9.14183 286.291 7.38161 287.864 5.80865C289.475 4.19824 291.047 2.92489 292.583 1.98861C294.156 1.01487 295.635 0.528 297.021 0.528C297.882 0.528 298.669 0.715257 299.38 1.08977C300.129 1.42683 300.504 2.11969 300.504 3.16833C300.504 4.29187 300.092 5.49032 299.268 6.76366C298.444 8.03701 297.358 9.32909 296.01 10.6399C294.662 11.9507 293.164 13.224 291.516 14.4599C289.905 15.6958 288.276 16.8756 286.628 17.9991C284.98 19.0852 283.445 20.0776 282.022 20.9765C280.599 21.8379 279.438 22.5494 278.539 23.1112C278.239 23.5981 277.865 24.2909 277.415 25.1898C276.966 26.0512 276.61 26.744 276.348 27.2683C276.984 26.7815 277.865 26.0699 278.988 25.1336C280.112 24.1599 281.348 23.1674 282.696 22.1562C284.082 21.145 285.43 20.2836 286.741 19.5721C288.051 18.8605 289.194 18.5047 290.167 18.5047C290.954 18.5047 291.516 18.7294 291.853 19.1788C292.19 19.6282 292.358 20.2275 292.358 20.9765C292.358 21.8753 292.003 22.6992 291.291 23.4483C290.617 24.1599 289.737 24.7965 288.651 25.3583C287.565 25.9201 286.441 26.3508 285.28 26.6504C284.156 26.95 283.145 27.0998 282.246 27.0998C282.097 27.0998 281.947 27.0998 281.797 27.0998C281.647 27.0998 281.497 27.0811 281.348 27.0436C281.797 28.3544 282.583 29.5341 283.707 30.5828C284.831 31.6314 286.104 32.1557 287.527 32.1557C289.175 32.1557 290.598 31.8749 291.797 31.3131C293.032 30.7139 294.1 30.0023 294.999 29.1783C295.935 28.3544 296.759 27.5867 297.47 26.8751C297.658 26.6878 297.807 26.5942 297.92 26.5942C298.107 26.5942 298.201 26.744 298.201 27.0436C298.201 27.3807 298.07 27.6803 297.807 27.9424C297.171 28.5791 296.74 29.0285 296.515 29.2907C296.291 29.5529 296.085 29.7776 295.897 29.9648C295.71 30.1146 295.317 30.4142 294.718 30.8637C293.894 31.4629 293.164 31.9872 292.527 32.4366C291.928 32.8486 291.197 33.2231 290.336 33.5602C289.699 33.8223 289.006 34.047 288.257 34.2343C287.508 34.3841 286.759 34.459 286.01 34.459C285.336 34.459 284.662 34.3841 283.988 34.2343C283.351 34.047 282.733 33.7287 282.134 33.2793C281.235 32.6426 280.467 31.7999 279.831 30.7513C279.194 29.7027 278.782 28.6728 278.595 27.6616C278.145 27.8863 277.565 28.2982 276.853 28.8975C276.179 29.4967 275.543 30.2457 274.943 31.1445C274.382 32.0059 274.045 32.9797 273.932 34.0658C273.633 34.1781 273.314 34.2717 272.977 34.3466C272.64 34.4215 272.303 34.459 271.966 34.459ZM279.213 21.2012C280.074 20.602 281.235 19.8342 282.696 18.8979C284.156 17.9242 285.711 16.8568 287.359 15.6958C289.044 14.4974 290.654 13.2615 292.19 11.9881C293.725 10.6773 295.036 9.38527 296.122 8.11192C297.246 6.80112 297.939 5.58394 298.201 4.4604C298.201 4.3855 298.201 4.3106 298.201 4.23569C298.238 4.16079 298.257 4.10461 298.257 4.06716C298.257 3.50539 297.957 3.16833 297.358 3.05597C297.246 3.01852 297.133 2.9998 297.021 2.9998C296.909 2.9998 296.796 2.9998 296.684 2.9998C295.523 2.9998 294.25 3.50539 292.864 4.51658C291.516 5.52777 290.13 6.81984 288.707 8.3928C287.284 9.92831 285.935 11.5574 284.662 13.2802C283.389 14.9655 282.265 16.5198 281.291 17.9429C280.355 19.3661 279.662 20.4522 279.213 21.2012ZM281.797 26.0324C282.284 26.0324 282.921 25.9388 283.707 25.7515C284.493 25.5643 285.28 25.2834 286.066 24.9089C286.853 24.5344 287.508 24.085 288.033 23.5606C288.594 23.0363 288.875 22.4184 288.875 21.7068C288.875 21.2574 288.613 21.0327 288.089 21.0327C287.789 21.0327 287.321 21.2199 286.684 21.5944C286.048 21.9689 285.355 22.4184 284.606 22.9427C283.894 23.467 283.239 23.9726 282.64 24.4595C282.04 24.9463 281.591 25.3209 281.291 25.583C281.254 25.6205 281.235 25.6766 281.235 25.7515C281.235 25.8639 281.31 25.9388 281.46 25.9762C281.61 26.0137 281.722 26.0324 281.797 26.0324Z" fill="#920002"/>
<path d="M260.518 35.1331C259.657 35.1331 258.964 34.9084 258.44 34.459C257.953 34.047 257.709 33.3916 257.709 32.4928C257.709 31.0696 258.065 29.7214 258.777 28.448C259.526 27.1372 260.312 25.9575 261.136 24.9089C261.099 24.7216 261.061 24.5344 261.024 24.3471C261.024 24.1224 261.024 23.9164 261.024 23.7292C261.024 22.6431 261.305 21.6319 261.866 20.6956C262.466 19.7593 263.233 19.0103 264.17 18.4485C265.143 17.8493 266.155 17.5497 267.203 17.5497C268.514 17.5497 269.488 17.9242 270.124 18.6732C270.799 19.3848 271.136 20.396 271.136 21.7068C271.136 23.0925 270.799 24.5156 270.124 25.9763C269.488 27.3994 268.814 28.6915 268.102 29.8525C268.289 29.9648 268.57 30.0772 268.945 30.1895C269.357 30.3019 269.712 30.3581 270.012 30.3581C271.323 30.3581 272.446 30.1334 273.383 29.6839C274.356 29.1971 275.499 28.3544 276.81 27.156C276.997 26.9687 277.147 26.8751 277.259 26.8751C277.409 26.8751 277.484 27.0062 277.484 27.2683C277.484 27.5679 277.353 27.8676 277.09 28.1672C276.267 29.1784 275.18 30.0023 273.832 30.639C272.484 31.2756 271.173 31.594 269.9 31.594C269.45 31.594 269.001 31.5565 268.552 31.4816C268.102 31.4067 267.671 31.2944 267.259 31.1446C266.436 32.1932 265.462 33.1295 264.338 33.9534C263.215 34.7399 261.941 35.1331 260.518 35.1331ZM266.585 29.1222C267.035 28.2233 267.428 27.1934 267.765 26.0324C268.102 24.8714 268.308 23.6917 268.383 22.4933C268.458 21.8566 268.308 21.2012 267.934 20.5271C267.596 19.8529 266.997 19.5159 266.136 19.5159C265.312 19.5159 264.619 19.8155 264.057 20.4147C263.533 21.0139 263.215 21.8004 263.102 22.7742C263.364 22.5869 263.702 22.4184 264.114 22.2686C264.563 22.1188 264.937 22.0439 265.237 22.0439C265.724 22.0439 266.117 22.1749 266.417 22.4371C266.716 22.6618 266.866 22.924 266.866 23.2236C266.866 23.5981 266.623 23.8602 266.136 24.0101C265.686 24.1599 265.2 24.4407 264.675 24.8527C264.188 25.2647 263.833 25.6392 263.608 25.9763C263.908 26.5755 264.338 27.156 264.9 27.7177C265.462 28.2795 266.024 28.7477 266.585 29.1222ZM261.866 33.504C262.241 33.504 262.709 33.3167 263.271 32.9422C263.833 32.5303 264.357 32.0808 264.844 31.594C265.368 31.1071 265.743 30.7139 265.967 30.4142C265.443 30.1146 264.806 29.6278 264.057 28.9536C263.346 28.2795 262.784 27.699 262.372 27.2122C262.147 27.4743 261.904 27.9237 261.642 28.5604C261.38 29.1596 261.155 29.7963 260.968 30.4704C260.78 31.1446 260.687 31.7063 260.687 32.1557C260.687 33.0546 261.08 33.504 261.866 33.504Z" fill="#920002"/>
<path d="M246.992 35.1331C246.13 35.1331 245.438 34.9084 244.913 34.459C244.426 34.047 244.183 33.3916 244.183 32.4928C244.183 31.0696 244.539 29.7214 245.25 28.448C245.999 27.1372 246.786 25.9575 247.61 24.9089C247.572 24.7216 247.535 24.5344 247.497 24.3471C247.497 24.1224 247.497 23.9164 247.497 23.7292C247.497 22.6431 247.778 21.6319 248.34 20.6956C248.939 19.7593 249.707 19.0103 250.643 18.4485C251.617 17.8493 252.628 17.5497 253.677 17.5497C254.988 17.5497 255.961 17.9242 256.598 18.6732C257.272 19.3848 257.609 20.396 257.609 21.7068C257.609 23.0925 257.272 24.5156 256.598 25.9763C255.961 27.3994 255.287 28.6915 254.576 29.8525C254.763 29.9648 255.044 30.0772 255.418 30.1895C255.83 30.3019 256.186 30.3581 256.486 30.3581C257.796 30.3581 258.92 30.1334 259.856 29.6839C260.83 29.1971 261.972 28.3544 263.283 27.156C263.47 26.9687 263.62 26.8751 263.733 26.8751C263.882 26.8751 263.957 27.0062 263.957 27.2683C263.957 27.5679 263.826 27.8676 263.564 28.1672C262.74 29.1784 261.654 30.0023 260.306 30.639C258.957 31.2756 257.647 31.594 256.373 31.594C255.924 31.594 255.474 31.5565 255.025 31.4816C254.576 31.4067 254.145 31.2944 253.733 31.1446C252.909 32.1932 251.935 33.1295 250.812 33.9534C249.688 34.7399 248.415 35.1331 246.992 35.1331ZM253.059 29.1222C253.508 28.2233 253.902 27.1934 254.239 26.0324C254.576 24.8714 254.782 23.6917 254.857 22.4933C254.931 21.8566 254.782 21.2012 254.407 20.5271C254.07 19.8529 253.471 19.5159 252.609 19.5159C251.786 19.5159 251.093 19.8155 250.531 20.4147C250.007 21.0139 249.688 21.8004 249.576 22.7742C249.838 22.5869 250.175 22.4184 250.587 22.2686C251.037 22.1188 251.411 22.0439 251.711 22.0439C252.197 22.0439 252.591 22.1749 252.89 22.4371C253.19 22.6618 253.34 22.924 253.34 23.2236C253.34 23.5981 253.096 23.8602 252.609 24.0101C252.16 24.1599 251.673 24.4407 251.149 24.8527C250.662 25.2647 250.306 25.6392 250.081 25.9763C250.381 26.5755 250.812 27.156 251.374 27.7177C251.935 28.2795 252.497 28.7477 253.059 29.1222ZM248.34 33.504C248.715 33.504 249.183 33.3167 249.744 32.9422C250.306 32.5303 250.831 32.0808 251.317 31.594C251.842 31.1071 252.216 30.7139 252.441 30.4142C251.917 30.1146 251.28 29.6278 250.531 28.9536C249.819 28.2795 249.258 27.699 248.846 27.2122C248.621 27.4743 248.377 27.9237 248.115 28.5604C247.853 29.1596 247.628 29.7963 247.441 30.4704C247.254 31.1446 247.16 31.7063 247.16 32.1557C247.16 33.0546 247.554 33.504 248.34 33.504Z" fill="#920002"/>
<path d="M216.79 36.8184C215.516 36.8184 214.168 36.7061 212.745 36.4814C211.359 36.2567 210.03 35.8447 208.756 35.2455C207.52 34.6837 206.509 33.8972 205.723 32.886C204.936 31.8374 204.543 30.5266 204.543 28.9536C204.543 27.1185 204.955 25.3396 205.779 23.6168C206.64 21.8566 207.764 20.19 209.149 18.617C210.573 17.0066 212.127 15.5273 213.812 14.179C215.535 12.8308 217.239 11.6323 218.924 10.5837C220.647 9.49761 222.22 8.59878 223.643 7.8872C229.935 4.74128 236.152 3.16832 242.294 3.16832C243.08 3.16832 243.942 3.2245 244.878 3.33685C245.852 3.41176 246.769 3.61774 247.631 3.9548C248.492 4.25441 249.185 4.72256 249.709 5.35923C250.271 5.99591 250.552 6.83856 250.552 7.8872C250.552 9.60997 250.009 11.1267 248.923 12.4375C247.837 13.7109 246.47 14.797 244.822 15.6958C243.174 16.5572 241.47 17.2126 239.71 17.662C237.987 18.1114 236.47 18.3362 235.159 18.3362C234.373 18.3362 233.549 18.2612 232.688 18.1114C231.864 17.9242 231.152 17.5871 230.553 17.1003C229.991 16.5759 229.71 15.8269 229.71 14.8532C229.71 14.3288 229.823 13.8045 230.047 13.2802C230.272 12.7184 230.515 12.4375 230.778 12.4375C231.339 12.4375 231.62 12.681 231.62 13.1679C231.62 13.3551 231.602 13.5424 231.564 13.7296C231.527 13.9169 231.508 14.1041 231.508 14.2914C231.508 15.1153 231.808 15.7707 232.407 16.2576C233.006 16.7445 234.092 16.9879 235.665 16.9879C236.901 16.9879 238.249 16.7819 239.71 16.3699C241.17 15.9205 242.537 15.3213 243.811 14.5723C245.122 13.7858 246.17 12.8682 246.957 11.8196C247.818 10.6961 248.249 9.66614 248.249 8.72986C248.249 7.64377 247.687 6.81983 246.563 6.25806C245.477 5.65884 244.11 5.35923 242.462 5.35923C239.354 5.35923 236.208 5.8461 233.025 6.81984C229.841 7.79357 226.808 9.08565 223.924 10.6961C221.078 12.3065 218.531 14.1041 216.284 16.0891C214.037 18.074 212.258 20.0964 210.947 22.1562C209.636 24.1786 208.981 26.0886 208.981 27.8863C208.981 29.5341 209.412 30.8824 210.273 31.931C211.134 32.9797 212.22 33.7474 213.531 34.2343C214.842 34.7212 216.19 34.9646 217.576 34.9646C221.171 34.9646 224.617 34.5526 227.913 33.7287C231.246 32.8673 234.467 31.5565 237.575 29.7963C237.912 29.609 238.399 29.3094 239.036 28.8975C239.672 28.448 240.328 27.9612 241.002 27.4368C241.676 26.8751 242.238 26.3695 242.687 25.9201C242.987 25.8077 243.212 25.7515 243.361 25.7515C243.586 25.7515 243.717 25.8264 243.755 25.9762C243.829 26.0886 243.811 26.2384 243.698 26.4257C242.725 27.699 241.414 28.8787 239.766 29.9648C238.118 31.0509 236.283 32.0246 234.261 32.886C232.276 33.71 230.235 34.4028 228.137 34.9646C226.04 35.5638 223.999 36.0132 222.014 36.3128C220.067 36.6499 218.325 36.8184 216.79 36.8184Z" fill="#920002"/>
<path d="M167.943 57.7163C166.707 57.7163 165.453 57.5104 164.179 57.0984C162.906 56.6864 161.838 56.0123 160.977 55.076C160.116 54.1772 159.685 53.0162 159.685 51.593C159.685 49.9826 160.191 48.4471 161.202 46.9865C162.213 45.5259 163.561 44.1776 165.247 42.9417C166.894 41.7058 168.748 40.5823 170.808 39.5711C172.83 38.5599 174.89 37.6611 176.988 36.8746C179.085 36.1256 181.07 35.5076 182.942 35.0208C184.815 34.5339 186.407 34.1968 187.717 34.0096C187.98 33.1107 188.242 32.0808 188.504 30.9198C188.766 29.7588 189.009 28.5978 189.234 27.4369C189.496 26.2384 189.702 25.1898 189.852 24.2909C189.403 25.1149 188.822 26.0699 188.111 27.156C187.399 28.2421 186.594 29.272 185.695 30.2457C184.796 31.2194 183.879 32.0434 182.942 32.7175C182.043 33.3542 181.163 33.6725 180.302 33.6725C179.291 33.6725 178.598 33.3167 178.223 32.6052C177.886 31.8561 177.718 31.0509 177.718 30.1895C177.718 29.5529 177.849 28.8038 178.111 27.9424C178.411 27.0811 178.785 26.2571 179.235 25.4707C179.722 24.6467 180.283 23.9726 180.92 23.4483C181.594 22.8865 182.287 22.6056 182.999 22.6056C183.223 22.6056 183.504 22.6618 183.841 22.7741C184.216 22.8865 184.403 23.0925 184.403 23.3921C184.403 23.5419 184.216 23.8602 183.841 24.3471C183.504 24.834 183.111 25.3957 182.661 26.0324C182.212 26.6691 181.8 27.3245 181.426 27.9986C181.088 28.6353 180.92 29.2345 180.92 29.7963C180.92 30.0959 180.957 30.4142 181.032 30.7513C181.107 31.0884 181.351 31.2569 181.763 31.2569C182.399 31.2569 183.261 30.7513 184.347 29.7401C185.433 28.7289 186.556 27.3994 187.717 25.7515C188.878 24.0662 189.89 22.2124 190.751 20.19C190.826 19.7406 191.107 19.4597 191.594 19.3473C192.08 19.1975 192.511 19.1226 192.886 19.1226C193.11 19.1226 193.429 19.1788 193.841 19.2912C194.29 19.4035 194.515 19.6095 194.515 19.9091C194.515 20.4709 194.384 21.3884 194.122 22.6618C193.859 23.9351 193.541 25.3208 193.167 26.8189C192.792 28.2795 192.418 29.6652 192.043 30.976C191.706 32.2868 191.444 33.2793 191.257 33.9534C191.631 33.9534 192.118 33.9909 192.717 34.0658C193.354 34.1032 193.916 34.2343 194.402 34.459C194.889 34.6837 195.133 35.0582 195.133 35.5825C195.133 35.7698 195.077 35.8634 194.964 35.8634C194.927 35.8634 194.871 35.8447 194.796 35.8072C194.721 35.8072 194.627 35.8072 194.515 35.8072C193.766 35.4327 192.961 35.2455 192.099 35.2455C191.912 35.2455 191.725 35.2455 191.537 35.2455C191.35 35.2455 191.163 35.2642 190.976 35.3017C190.189 37.8109 189.103 40.3763 187.717 42.9979C186.332 45.657 184.665 48.0913 182.718 50.301C180.77 52.5106 178.561 54.2895 176.089 55.6378C173.654 57.0235 170.939 57.7163 167.943 57.7163ZM168.561 56.5366C170.621 56.5366 172.531 56.0872 174.291 55.1884C176.051 54.2895 177.643 53.0911 179.066 51.593C180.527 50.095 181.819 48.4284 182.942 46.5933C184.066 44.7581 185.021 42.8668 185.807 40.9194C186.594 38.9719 187.193 37.118 187.605 35.3578C186.481 35.5076 185.077 35.8072 183.392 36.2567C181.744 36.7435 179.984 37.3428 178.111 38.0543C176.239 38.8034 174.385 39.646 172.55 40.5823C170.714 41.5186 169.048 42.5485 167.55 43.6721C166.052 44.833 164.853 46.0502 163.954 47.3236C163.056 48.5969 162.606 49.9264 162.606 51.3121V52.211C162.606 53.1098 162.925 53.8776 163.561 54.5142C164.16 55.1884 164.928 55.694 165.864 56.031C166.763 56.3681 167.662 56.5366 168.561 56.5366Z" fill="#920002"/>
<path d="M170.602 34.7399C169.104 34.7399 167.999 34.3466 167.287 33.5601C166.576 32.7737 166.22 31.6689 166.22 30.2457C166.22 28.9349 166.52 27.493 167.119 25.9201C167.718 24.3096 168.373 22.9801 169.085 21.9315C168.748 21.9689 168.392 22.0251 168.018 22.1C167.681 22.1375 167.325 22.1562 166.95 22.1562C166.351 22.1562 165.808 22.0626 165.321 21.8753C164.872 21.6506 164.647 21.2386 164.647 20.6394C164.647 20.3398 164.778 20.1338 165.04 20.0215C165.302 19.9091 165.565 19.8717 165.827 19.9091L170.04 20.1338C170.489 19.3473 171.033 18.4298 171.669 17.3811C172.343 16.295 173.074 15.2464 173.86 14.2352C174.684 13.224 175.564 12.4001 176.5 11.7634C177.437 11.0893 178.41 10.7522 179.422 10.7522C179.646 10.7522 179.946 10.7897 180.32 10.8646C180.732 10.902 180.995 11.0893 181.107 11.4264C181.144 11.5013 181.163 11.5949 181.163 11.7072C181.163 11.9319 181.069 12.1379 180.882 12.3252C180.695 12.475 180.508 12.6435 180.32 12.8308C179.085 14.0292 177.924 15.2089 176.837 16.3699C175.789 17.5309 174.759 18.823 173.748 20.2462C174.497 20.2836 175.227 20.3023 175.939 20.3023C176.688 20.2649 177.418 20.2462 178.13 20.2462C178.504 20.2462 178.86 20.2836 179.197 20.3585C179.571 20.4334 179.777 20.6207 179.815 20.9203C179.815 21.145 179.515 21.3135 178.916 21.4259C178.317 21.5382 177.605 21.6319 176.781 21.7068C175.957 21.7442 175.171 21.7817 174.422 21.8191C173.673 21.8191 173.167 21.8191 172.905 21.8191C172.456 22.4933 171.95 23.3546 171.388 24.4033C170.864 25.4519 170.396 26.5193 169.984 27.6054C169.609 28.6915 169.422 29.6465 169.422 30.4704C169.422 32.3055 170.209 33.2231 171.782 33.2231C172.868 33.2231 173.935 32.9797 174.984 32.4928C176.032 32.0059 177.025 31.4067 177.961 30.6951C178.935 29.9835 179.777 29.2907 180.489 28.6166C181.201 27.9424 181.725 27.4368 182.062 27.0998C182.212 26.95 182.343 26.8751 182.455 26.8751C182.605 26.8751 182.68 26.9874 182.68 27.2121C182.68 27.5866 182.568 27.8863 182.343 28.111C181.257 29.1971 180.077 30.2644 178.804 31.3131C177.53 32.3243 176.201 33.1482 174.815 33.7849C173.467 34.4215 172.062 34.7399 170.602 34.7399Z" fill="#920002"/>
<path d="M147.735 54.4581C145.862 54.4581 144.626 53.8776 144.027 52.7166C143.39 51.5556 143.072 50.1699 143.072 48.5595C143.072 47.4359 143.24 46.2187 143.578 44.9079C143.915 43.6346 144.327 42.3613 144.813 41.0879C145.3 39.8146 145.768 38.6723 146.218 37.6611C147.416 34.8897 148.746 32.1557 150.206 29.4592C151.704 26.7627 153.446 23.8415 155.431 20.6956C155.73 20.1713 156.236 19.3661 156.948 18.28C157.697 17.1564 158.521 15.9205 159.419 14.5723C160.318 13.1866 161.217 11.8383 162.116 10.5275C163.052 9.17928 163.876 8.03701 164.588 7.10073C165.299 6.12699 165.824 5.50904 166.161 5.24688C166.535 4.94727 166.947 4.70383 167.397 4.51658C167.883 4.29187 168.37 4.17951 168.857 4.17951C169.756 4.17951 170.205 4.6102 170.205 5.47159C170.205 5.62139 169.906 6.12699 169.307 6.98837C168.707 7.8123 167.921 8.87967 166.947 10.1905C165.973 11.4638 164.925 12.8308 163.801 14.2914C162.678 15.7146 161.573 17.119 160.487 18.5047C159.438 19.8529 158.521 21.0514 157.734 22.1C156.948 23.1112 156.423 23.8228 156.161 24.2348H156.274C157.097 24.1973 157.79 24.5718 158.352 25.3583C158.914 26.1448 159.363 27.0436 159.7 28.0548C160.037 29.0285 160.281 29.8337 160.431 30.4704C160.843 30.7326 161.273 30.9198 161.723 31.0322C162.172 31.1071 162.64 31.1445 163.127 31.1445C164.326 31.1445 165.412 30.8824 166.385 30.3581C167.397 29.8337 168.258 29.2532 168.97 28.6166C169.719 27.9424 170.243 27.4181 170.543 27.0436C170.655 26.8938 170.786 26.8189 170.936 26.8189C171.198 26.8189 171.329 26.9874 171.329 27.3245C171.329 27.6241 170.842 28.2233 169.868 29.1222C168.932 29.9835 167.921 30.7326 166.835 31.3693C165.786 32.0059 164.644 32.4179 163.408 32.6052C163.296 32.6426 163.165 32.6613 163.015 32.6613C162.902 32.6613 162.753 32.6613 162.565 32.6613C162.191 32.6613 161.835 32.6426 161.498 32.6052C161.161 32.5677 160.899 32.5302 160.712 32.4928C160.824 33.3916 160.88 34.2717 160.88 35.1331C160.88 36.4814 160.674 37.9982 160.262 39.6835C159.888 41.4062 159.307 43.129 158.521 44.8518C157.772 46.5745 156.854 48.1662 155.768 49.6268C154.719 51.0874 153.521 52.2484 152.173 53.1098C150.824 54.0086 149.345 54.4581 147.735 54.4581ZM148.633 52.8851C149.832 52.8851 150.937 52.4544 151.948 51.593C152.997 50.7316 153.933 49.6081 154.757 48.2224C155.618 46.8367 156.348 45.3574 156.948 43.7844C157.547 42.2114 157.996 40.6947 158.296 39.2341C158.633 37.7734 158.802 36.5563 158.802 35.5825C158.802 34.9084 158.745 34.253 158.633 33.6163C158.558 32.9422 158.446 32.2868 158.296 31.6501L158.24 31.5378C157.416 31.0509 156.629 30.433 155.88 29.6839C155.131 28.8975 154.607 28.0361 154.307 27.0998C153.521 28.5604 152.641 30.2457 151.667 32.1557C150.731 34.0283 149.832 36.0132 148.971 38.1105C148.109 40.2078 147.398 42.2676 146.836 44.29C146.274 46.3124 145.993 48.1662 145.993 49.8515C145.993 50.7504 146.199 51.4807 146.611 52.0424C146.986 52.6042 147.66 52.8851 148.633 52.8851Z" fill="#920002"/>
<path d="M146.555 34.5713C145.356 34.5713 144.458 34.2905 143.858 33.7287C143.259 33.1295 142.866 32.3804 142.679 31.4816C142.529 30.5828 142.473 29.6839 142.51 28.7851C141.948 29.5341 141.256 30.3581 140.432 31.2569C139.608 32.1183 138.709 32.8673 137.735 33.504C136.761 34.1406 135.769 34.459 134.758 34.459C134.009 34.459 133.391 34.2905 132.904 33.9534C132.417 33.5789 132.174 32.9984 132.174 32.2119C132.174 30.9011 132.586 29.5154 133.409 28.0548C134.271 26.5942 135.357 25.2085 136.668 23.8977C137.979 22.5494 139.383 21.4633 140.881 20.6394C142.379 19.8155 143.784 19.4035 145.094 19.4035C145.469 19.4035 145.993 19.4784 146.667 19.6282C147.341 19.778 147.941 20.0027 148.465 20.3023C149.027 20.602 149.308 21.0139 149.308 21.5382C149.308 21.8004 149.139 21.9502 148.802 21.9877C148.465 22.0251 148.222 22.1375 148.072 22.3247C146.986 23.6355 146.443 25.7515 146.443 28.6727C146.443 29.0473 146.461 29.5529 146.499 30.1895C146.536 30.8262 146.667 31.388 146.892 31.8748C147.154 32.3617 147.547 32.6051 148.072 32.6051C148.858 32.6051 149.701 32.2681 150.6 31.594C151.499 30.9198 152.397 30.1146 153.296 29.1783C154.195 28.2046 155.019 27.3245 155.768 26.538C155.843 26.4257 155.918 26.3695 155.993 26.3695C156.18 26.3695 156.33 26.4818 156.442 26.7065C156.592 26.8938 156.592 27.0623 156.442 27.2121C155.543 28.2608 154.663 29.1971 153.802 30.021C152.978 30.8449 152.116 31.6314 151.218 32.3804C149.495 33.841 147.941 34.5713 146.555 34.5713ZM137.791 31.8748C138.653 31.388 139.514 30.6202 140.375 29.5716C141.274 28.5229 142.117 27.3245 142.903 25.9762C143.727 24.628 144.42 23.2797 144.982 21.9315C144.083 21.9315 143.072 22.2685 141.948 22.9427C140.825 23.5793 139.757 24.4033 138.746 25.4145C137.735 26.3882 136.892 27.4181 136.218 28.5042C135.582 29.5528 135.263 30.5079 135.263 31.3692C135.263 32.0808 135.544 32.4366 136.106 32.4366C136.518 32.4366 137.08 32.2494 137.791 31.8748Z" fill="#920002"/>
<path d="M127.061 35.3578C125.751 35.3578 124.646 35.0582 123.747 34.459C122.848 33.8598 122.399 32.8486 122.399 31.4254C122.399 30.5266 122.755 29.3282 123.466 27.8301C124.178 26.332 125.058 24.9463 126.106 23.673C125.919 23.7104 125.676 23.7479 125.376 23.7853C125.114 23.7853 124.814 23.7853 124.477 23.7853C123.916 23.7853 123.354 23.7104 122.792 23.5606C122.23 23.3734 121.856 23.0363 121.668 22.5494C121.519 22.7367 121.144 23.2049 120.545 23.9539C119.946 24.7029 119.253 25.5268 118.466 26.4257C117.717 27.2871 117.024 28.0361 116.388 28.6728C115.751 29.3094 115.32 29.6278 115.096 29.6278C115.021 29.6278 114.927 29.5903 114.815 29.5154C114.703 29.4405 114.646 29.3469 114.646 29.2345C114.646 29.0473 114.834 28.7664 115.208 28.3919C115.62 28.0174 115.92 27.7365 116.107 27.5492C117.53 26.0137 118.579 24.7591 119.253 23.7853C119.964 22.7742 120.451 22.0251 120.713 21.5383C120.489 21.2012 120.376 20.6769 120.376 19.9653C120.376 19.1788 120.489 18.3549 120.713 17.4935C120.976 16.5947 121.313 15.8269 121.725 15.1902C122.174 14.5536 122.68 14.2352 123.241 14.2352C123.878 14.2352 124.402 14.5723 124.814 15.2464C125.226 15.9205 125.432 16.5385 125.432 17.1003C125.432 17.5497 125.264 18.0366 124.927 18.5609C124.59 19.0852 124.196 19.5908 123.747 20.0777C123.335 20.5645 122.979 20.9578 122.68 21.2574C123.017 22.1562 123.672 22.6056 124.646 22.6056C125.32 22.6056 125.882 22.4184 126.331 22.0439C126.781 21.6693 127.193 21.3136 127.567 20.9765C127.942 20.602 128.335 20.4147 128.747 20.4147C129.271 20.4147 129.739 20.602 130.151 20.9765C130.563 21.3136 130.75 21.7442 130.713 22.2686C130.076 22.9427 129.365 23.8602 128.578 25.0212C127.829 26.1448 127.193 27.3245 126.668 28.5604C126.144 29.7588 125.882 30.8449 125.882 31.8187C125.882 32.5303 126.088 33.0171 126.5 33.2793C126.949 33.5414 127.53 33.6725 128.241 33.6725C128.915 33.6725 129.627 33.4853 130.376 33.1108C131.125 32.7362 131.874 32.2868 132.623 31.7625C133.11 31.4254 133.821 30.8075 134.758 29.9087C135.731 29.0098 136.855 27.8676 138.128 26.4819C138.203 26.4069 138.278 26.3695 138.353 26.3695C138.653 26.3695 138.803 26.5755 138.803 26.9874C138.803 27.0998 138.578 27.4181 138.128 27.9425C137.679 28.4293 137.136 28.9911 136.499 29.6278C135.9 30.2644 135.32 30.8637 134.758 31.4254C134.196 31.9498 133.784 32.3055 133.522 32.4928C132.586 33.2044 131.574 33.8598 130.488 34.459C129.44 35.0582 128.297 35.3578 127.061 35.3578Z" fill="#920002"/>
<path d="M86.972 36.8184C85.6987 36.8184 84.3505 36.7061 82.9273 36.4814C81.5416 36.2567 80.2121 35.8447 78.9387 35.2455C77.7028 34.6837 76.6916 33.8972 75.9052 32.886C75.1187 31.8374 74.7254 30.5266 74.7254 28.9536C74.7254 27.1185 75.1374 25.3396 75.9613 23.6168C76.8227 21.8566 77.9463 20.19 79.332 18.617C80.7551 17.0066 82.3093 15.5273 83.9947 14.179C85.7174 12.8308 87.4215 11.6323 89.1068 10.5837C90.8296 9.49761 92.4025 8.59878 93.8257 7.8872C100.118 4.74128 106.334 3.16832 112.476 3.16832C113.263 3.16832 114.124 3.2245 115.061 3.33685C116.034 3.41176 116.952 3.61774 117.813 3.9548C118.675 4.25441 119.368 4.72256 119.892 5.35923C120.454 5.99591 120.735 6.83856 120.735 7.8872C120.735 9.60997 120.191 11.1267 119.105 12.4375C118.019 13.7109 116.652 14.797 115.004 15.6958C113.357 16.5572 111.653 17.2126 109.892 17.662C108.17 18.1114 106.653 18.3362 105.342 18.3362C104.556 18.3362 103.732 18.2612 102.87 18.1114C102.046 17.9242 101.335 17.5871 100.735 17.1003C100.174 16.5759 99.8928 15.8269 99.8928 14.8532C99.8928 14.3288 100.005 13.8045 100.23 13.2802C100.455 12.7184 100.698 12.4375 100.96 12.4375C101.522 12.4375 101.803 12.681 101.803 13.1679C101.803 13.3551 101.784 13.5424 101.747 13.7296C101.709 13.9169 101.69 14.1041 101.69 14.2914C101.69 15.1153 101.99 15.7707 102.589 16.2576C103.189 16.7445 104.275 16.9879 105.848 16.9879C107.083 16.9879 108.432 16.7819 109.892 16.3699C111.353 15.9205 112.72 15.3213 113.993 14.5723C115.304 13.7858 116.353 12.8682 117.139 11.8196C118.001 10.6961 118.431 9.66614 118.431 8.72986C118.431 7.64377 117.869 6.81983 116.746 6.25806C115.66 5.65884 114.293 5.35923 112.645 5.35923C109.537 5.35923 106.391 5.8461 103.207 6.81984C100.024 7.79357 96.9903 9.08565 94.1065 10.6961C91.2602 12.3065 88.7135 14.1041 86.4665 16.0891C84.2194 18.074 82.4404 20.0964 81.1296 22.1562C79.8188 24.1786 79.1634 26.0886 79.1634 27.8863C79.1634 29.5341 79.5941 30.8824 80.4555 31.931C81.3169 32.9797 82.403 33.7474 83.7138 34.2343C85.0246 34.7212 86.3728 34.9646 87.7585 34.9646C91.3539 34.9646 94.7994 34.5526 98.0951 33.7287C101.428 32.8673 104.649 31.5565 107.758 29.7963C108.095 29.609 108.582 29.3094 109.218 28.8975C109.855 28.448 110.51 27.9612 111.184 27.4368C111.859 26.8751 112.42 26.3695 112.87 25.9201C113.169 25.8077 113.394 25.7515 113.544 25.7515C113.769 25.7515 113.9 25.8264 113.937 25.9762C114.012 26.0886 113.993 26.2384 113.881 26.4257C112.907 27.699 111.596 28.8787 109.949 29.9648C108.301 31.0509 106.466 32.0246 104.443 32.886C102.458 33.71 100.417 34.4028 98.3198 34.9646C96.2226 35.5638 94.1815 36.0132 92.1965 36.3128C90.2491 36.6499 88.5076 36.8184 86.972 36.8184Z" fill="#920002"/>
<path d="M55.5515 34.7961C53.9036 34.7961 52.4617 34.4028 51.2258 33.6163C49.9899 32.8299 49.372 31.5191 49.372 29.6839C49.372 28.5604 49.6716 27.3994 50.2708 26.201C50.9075 24.9651 51.7314 23.8228 52.7426 22.7741C53.7538 21.7255 54.8399 20.8828 56.0009 20.2462C57.1993 19.572 58.379 19.235 59.54 19.235C60.1393 19.235 60.6449 19.4035 61.0568 19.7406C61.4688 20.0402 61.6748 20.5083 61.6748 21.145C61.6748 21.894 61.3377 22.6618 60.6636 23.4483C60.0269 24.2348 59.2217 24.9838 58.248 25.6954C57.3117 26.3695 56.3567 26.9687 55.3829 27.493C54.4092 27.9799 53.604 28.3357 52.9673 28.5604C52.855 29.0098 52.7988 29.478 52.7988 29.9648C52.7988 30.8262 53.0235 31.594 53.4729 32.2681C53.9598 32.9422 54.7837 33.2793 55.9447 33.2793C57.1057 33.2793 58.1543 33.0546 59.0906 32.6051C60.0644 32.1183 60.9445 31.5378 61.7309 30.8637C62.5174 30.1521 63.229 29.478 63.8657 28.8413C64.39 28.317 64.8207 27.8863 65.1578 27.5492C65.4948 27.1747 65.7944 26.8564 66.0566 26.5942C66.1689 26.4818 66.3375 26.4257 66.5622 26.4257C66.7494 26.4257 66.8992 26.5006 67.0116 26.6504C67.124 26.7627 67.0865 26.9125 66.8992 27.0998C66.7494 27.287 66.4873 27.5679 66.1128 27.9424C65.7757 28.2795 65.4386 28.6353 65.1016 29.0098C64.802 29.3469 64.5773 29.5903 64.4275 29.7401C62.7796 31.5003 61.2066 32.7924 59.7086 33.6163C58.2105 34.4028 56.8248 34.7961 55.5515 34.7961ZM53.1358 27.4369C53.5104 27.3619 54.0347 27.1372 54.7088 26.7627C55.4204 26.3508 56.1132 25.8826 56.7874 25.3583C57.087 25.0961 57.4989 24.7029 58.0233 24.1786C58.5476 23.6543 58.9034 23.2048 59.0906 22.8303C59.3528 22.3435 59.4839 21.9502 59.4839 21.6506C59.4839 21.2012 59.2404 20.9765 58.7536 20.9765C58.4914 20.9765 58.2105 21.0327 57.9109 21.145C57.5364 21.2948 57.087 21.6693 56.5627 22.2686C56.0383 22.8678 55.6264 23.3359 55.3268 23.673C54.8773 24.2348 54.4466 24.8527 54.0347 25.5268C53.6602 26.1635 53.3606 26.8002 53.1358 27.4369Z" fill="#920002"/>
<path d="M44.3292 34.7961C43.0559 34.7961 42.0447 34.459 41.2956 33.7849C40.5841 33.1107 40.2283 32.1183 40.2283 30.8075C40.2283 29.9836 40.4155 28.9911 40.79 27.8301C41.1646 26.6691 41.5391 25.7328 41.9136 25.0212C39.8538 26.4444 38.2059 27.9424 36.97 29.5154C35.7716 31.0884 34.6855 32.5303 33.7117 33.8411C33.487 34.1407 33.1312 34.3466 32.6444 34.459C32.1949 34.5714 31.783 34.6275 31.4085 34.6275C31.1089 34.6275 30.6594 34.5526 30.0602 34.4028C29.461 34.2905 29.1614 34.0096 29.1614 33.5602C29.1614 33.1107 29.3674 32.4366 29.7793 31.5378C30.1913 30.6015 30.6407 29.6839 31.1276 28.7851C31.6144 27.8863 31.9702 27.1934 32.1949 26.7066C32.8316 25.5456 33.6555 24.1224 34.6667 22.4371C35.7154 20.7143 36.8951 18.8792 38.2059 16.9317C39.5541 14.9468 40.9773 12.9993 42.4754 11.0893C43.9734 9.14183 45.5089 7.38161 47.0819 5.80865C48.6923 4.19824 50.284 2.92489 51.8569 1.98861C53.4299 1.01487 54.9092 0.528 56.2949 0.528C57.3436 0.528 58.1675 0.771434 58.7667 1.2583C59.366 1.74517 59.6656 2.53165 59.6656 3.61774C59.6656 4.74129 59.2349 5.95846 58.3735 7.26926C57.5121 8.58006 56.3886 9.92831 55.0029 11.314C53.6172 12.6623 52.1378 13.9731 50.5649 15.2464C48.9919 16.4823 47.4751 17.6246 46.0145 18.6732C44.5914 19.7219 43.4116 20.5832 42.4754 21.2574C41.4642 21.9689 40.4155 22.6805 39.3294 23.3921C38.2808 24.0662 37.3258 24.834 36.4644 25.6954C36.3521 25.8077 36.1461 26.1073 35.8465 26.5942C35.5468 27.0811 35.2285 27.6241 34.8914 28.2233C34.5918 28.8226 34.3109 29.3843 34.0488 29.9087C33.7866 30.3955 33.6181 30.7326 33.5432 30.9198C33.8803 30.5828 34.4233 30.0772 35.1723 29.4031C35.9214 28.6915 36.764 27.9237 37.7003 27.0998C38.6366 26.2759 39.5729 25.4894 40.5092 24.7404C41.4829 23.9539 42.3443 23.3172 43.0933 22.8303C43.8798 22.3435 44.4603 22.1 44.8348 22.1C45.3591 22.1 45.7898 22.2311 46.1269 22.4933C46.4639 22.7554 46.6325 23.1487 46.6325 23.673C46.258 24.3471 45.8085 25.1149 45.2842 25.9762C44.7599 26.8376 44.2918 27.7177 43.8798 28.6166C43.4678 29.5154 43.2618 30.3581 43.2618 31.1445C43.2618 31.7438 43.4304 32.2119 43.7674 32.549C44.1419 32.886 44.5914 33.0546 45.1157 33.0546C46.0894 33.0546 47.0819 32.7737 48.0931 32.2119C49.1043 31.6501 50.0406 30.9947 50.9019 30.2457C51.8008 29.4592 52.5685 28.7102 53.2052 27.9986C53.8793 27.2871 54.3662 26.7815 54.6658 26.4818C54.7407 26.4069 54.8343 26.3695 54.9467 26.3695C55.2463 26.3695 55.3961 26.5567 55.3961 26.9313C55.3961 27.0811 55.2276 27.3432 54.8905 27.7177C54.5534 28.0923 54.31 28.3544 54.1602 28.5042C53.2239 29.5154 52.2502 30.5079 51.239 31.4816C50.2653 32.4553 49.2166 33.2606 48.0931 33.8972C46.9695 34.4965 45.7149 34.7961 44.3292 34.7961ZM37.1947 23.5606C38.0935 22.9614 39.3294 22.1188 40.9024 21.0327C42.4754 19.9091 44.1607 18.6358 45.9583 17.2126C47.7935 15.7895 49.5162 14.2914 51.1266 12.7184C52.7745 11.1455 54.1228 9.60997 55.1714 8.11192C56.22 6.57641 56.7444 5.17198 56.7444 3.89863C56.7444 3.1496 56.5946 2.64401 56.2949 2.38185C55.9953 2.11969 55.6957 1.98861 55.3961 1.98861C54.5347 1.98861 53.5423 2.40057 52.4187 3.22451C51.3326 4.04843 50.1716 5.15325 48.9357 6.53896C47.6998 7.88721 46.4827 9.38527 45.2842 11.0331C44.0858 12.6435 42.9435 14.2727 41.8574 15.9205C40.7713 17.531 39.8163 19.0103 38.9924 20.3585C38.2059 21.7068 37.6067 22.7742 37.1947 23.5606Z" fill="#920002"/>
<path d="M19.3795 36.8184C18.2185 36.8184 17.2073 36.575 16.346 36.0881C15.522 35.6013 15.1101 34.7773 15.1101 33.6163C15.1101 32.1932 15.4846 30.3955 16.2336 28.2233C16.9826 26.0512 18.1811 23.4857 19.8289 20.5271C20.9899 18.4298 22.1697 16.4449 23.3681 14.5723C24.5665 12.6997 25.9148 10.7897 27.4129 8.84222L17.2448 11.2578C15.3348 11.7073 13.4996 12.0256 11.7394 12.2129C9.97921 12.4001 8.2939 12.4937 6.68348 12.4937C4.54875 12.4937 2.97579 12.2129 1.9646 11.6511C0.990866 11.0519 0.503998 10.3216 0.503998 9.46017C0.503998 8.93585 0.747432 8.37408 1.2343 7.77486C1.90843 6.95093 2.80726 6.22062 3.9308 5.58395C5.05435 4.94727 6.49623 4.40423 8.25644 3.95481C9.6796 3.5803 11.1964 3.29941 12.8068 3.11215C14.4172 2.9249 15.9714 2.83127 17.4695 2.83127C18.8927 2.83127 20.0724 2.88745 21.0087 2.9998C21.9449 3.0747 22.7127 3.20578 23.3119 3.39304C23.8362 3.5803 24.0984 3.80501 24.0984 4.06717C24.0984 4.32933 23.8924 4.42295 23.4805 4.34805C23.443 4.34805 22.9187 4.25442 21.9075 4.06717C20.8963 3.87991 19.3982 3.82373 17.4133 3.89863C10.8593 4.16079 6.45878 5.35924 4.21169 7.49397C3.68737 7.98084 3.42521 8.39281 3.42521 8.72987C3.42521 9.21674 3.87463 9.53508 4.77346 9.68488C5.6723 9.83469 6.75839 9.90959 8.03174 9.90959C9.34254 9.90959 11.0653 9.74106 13.2 9.404C15.3722 9.02948 17.638 8.59879 19.9975 8.11192C21.2708 7.84976 22.3756 7.62505 23.3119 7.4378C24.2482 7.25054 25.1845 7.06328 26.1208 6.87602C27.0571 6.68877 28.1432 6.46406 29.3791 6.2019C29.4914 6.05209 29.6974 5.78993 29.997 5.41542C30.3341 5.0409 30.5775 4.77874 30.7273 4.62894C30.9895 4.36678 31.5512 4.1608 32.4126 4.01099C33.274 3.86118 34.1541 3.78628 35.0529 3.78628C35.6522 3.78628 35.9518 3.87991 35.9518 4.06717C35.9518 4.14207 35.5585 4.61021 34.7721 5.47159C36.1952 5.28434 37.4873 5.13453 38.6483 5.02218C39.8093 4.90982 41.0077 4.85365 42.2436 4.85365C43.4795 4.85365 44.809 4.98473 46.2322 5.24688C47.6554 5.47159 49.0036 5.84611 50.277 6.37043C51.5503 6.8573 52.5802 7.5127 53.3667 8.33663C54.1906 9.12311 54.6026 10.0594 54.6026 11.1455C54.6026 11.7447 54.3779 12.0443 53.9285 12.0443C53.6663 12.0443 53.4978 11.8758 53.4229 11.5387C53.348 11.2391 53.2543 10.9582 53.142 10.6961C53.0296 10.4339 52.936 10.2279 52.8611 10.0781C52.2244 9.10438 51.2881 8.39281 50.0522 7.94339C48.8163 7.49397 47.5055 7.19436 46.1198 7.04455C44.7341 6.89475 43.4795 6.81985 42.356 6.81985C40.8579 6.81985 39.3411 6.91348 37.8056 7.10073C36.2701 7.25054 34.5286 7.49397 32.5811 7.83104C30.8584 9.81596 29.2667 11.8009 27.8061 13.7858C26.3829 15.7707 25.016 17.8118 23.7052 19.9091C20.2971 25.4519 18.593 29.9836 18.593 33.504C18.593 34.9646 18.8927 35.6949 19.4919 35.6949C19.6417 35.6949 19.8851 35.6387 20.2222 35.5264C20.5967 35.414 20.9525 35.2642 21.2895 35.077C22.076 34.6275 22.488 34.4028 22.5254 34.4028C22.9374 34.4028 23.1434 34.5714 23.1434 34.9084C23.1434 35.3578 22.6752 35.7698 21.739 36.1443C20.7278 36.5937 19.9413 36.8184 19.3795 36.8184Z" fill="#920002"/>
</svg>
